<mxfile host="Electron" modified="2024-01-17T15:21:33.562Z" agent="Mozilla/5.0 (X11; Linux x86_64) AppleWebKit/537.36 (KHTML, like Gecko) draw.io/22.1.2 Chrome/114.0.5735.289 Electron/25.9.4 Safari/537.36" etag="L63Rdv_LrOgZVrTmMDBl" version="22.1.2" type="device">
  <diagram name="analyser" id="km5IzrMBZggV5jTFlMx5">
    <mxGraphModel dx="1434" dy="866" grid="1" gridSize="10" guides="1" tooltips="1" connect="1" arrows="1" fold="1" page="1" pageScale="1" pageWidth="850" pageHeight="1100" math="0" shadow="0">
      <root>
        <mxCell id="0" />
        <mxCell id="1" parent="0" />
        <mxCell id="hAcNPV5WX45bzjx4Em5k-3" value="" style="endArrow=classic;html=1;rounded=0;entryX=0;entryY=0.5;entryDx=0;entryDy=0;" edge="1" parent="1" target="hAcNPV5WX45bzjx4Em5k-23">
          <mxGeometry width="50" height="50" relative="1" as="geometry">
            <mxPoint x="60" y="590" as="sourcePoint" />
            <mxPoint x="206" y="593" as="targetPoint" />
          </mxGeometry>
        </mxCell>
        <mxCell id="hAcNPV5WX45bzjx4Em5k-5" value="" style="endArrow=classic;html=1;rounded=0;entryX=0;entryY=0.5;entryDx=0;entryDy=0;exitX=1;exitY=0.5;exitDx=0;exitDy=0;" edge="1" parent="1" source="hAcNPV5WX45bzjx4Em5k-24" target="hAcNPV5WX45bzjx4Em5k-29">
          <mxGeometry width="50" height="50" relative="1" as="geometry">
            <mxPoint x="420" y="590" as="sourcePoint" />
            <mxPoint x="580" y="589.71" as="targetPoint" />
          </mxGeometry>
        </mxCell>
        <mxCell id="hAcNPV5WX45bzjx4Em5k-7" value="" style="endArrow=classic;html=1;rounded=0;exitX=1;exitY=0.5;exitDx=0;exitDy=0;" edge="1" parent="1" source="hAcNPV5WX45bzjx4Em5k-30">
          <mxGeometry width="50" height="50" relative="1" as="geometry">
            <mxPoint x="830" y="589.71" as="sourcePoint" />
            <mxPoint x="940" y="590" as="targetPoint" />
          </mxGeometry>
        </mxCell>
        <mxCell id="hAcNPV5WX45bzjx4Em5k-8" value="a * b + c - d" style="text;html=1;strokeColor=none;fillColor=none;align=center;verticalAlign=middle;whiteSpace=wrap;rounded=0;" vertex="1" parent="1">
          <mxGeometry x="70" y="553" width="80" height="30" as="geometry" />
        </mxCell>
        <mxCell id="hAcNPV5WX45bzjx4Em5k-9" value="ab*c+d-" style="text;html=1;strokeColor=none;fillColor=none;align=center;verticalAlign=middle;whiteSpace=wrap;rounded=0;" vertex="1" parent="1">
          <mxGeometry x="440" y="553" width="80" height="30" as="geometry" />
        </mxCell>
        <mxCell id="hAcNPV5WX45bzjx4Em5k-25" value="" style="group" vertex="1" connectable="0" parent="1">
          <mxGeometry x="176" y="560" width="240" height="60" as="geometry" />
        </mxCell>
        <mxCell id="hAcNPV5WX45bzjx4Em5k-21" value="&lt;b&gt;Preprocessing&lt;/b&gt;" style="rounded=0;whiteSpace=wrap;html=1;" vertex="1" parent="hAcNPV5WX45bzjx4Em5k-25">
          <mxGeometry x="40" width="160" height="60" as="geometry" />
        </mxCell>
        <mxCell id="hAcNPV5WX45bzjx4Em5k-23" value="String" style="rounded=0;whiteSpace=wrap;html=1;" vertex="1" parent="hAcNPV5WX45bzjx4Em5k-25">
          <mxGeometry width="40" height="60" as="geometry" />
        </mxCell>
        <mxCell id="hAcNPV5WX45bzjx4Em5k-24" value="String" style="rounded=0;whiteSpace=wrap;html=1;" vertex="1" parent="hAcNPV5WX45bzjx4Em5k-25">
          <mxGeometry x="200" width="40" height="60" as="geometry" />
        </mxCell>
        <mxCell id="hAcNPV5WX45bzjx4Em5k-27" value="" style="group" vertex="1" connectable="0" parent="1">
          <mxGeometry x="550" y="560" width="270" height="60" as="geometry" />
        </mxCell>
        <mxCell id="hAcNPV5WX45bzjx4Em5k-28" value="&lt;b&gt;Tree buiding&lt;/b&gt;" style="rounded=0;whiteSpace=wrap;html=1;" vertex="1" parent="hAcNPV5WX45bzjx4Em5k-27">
          <mxGeometry x="40" width="160" height="60" as="geometry" />
        </mxCell>
        <mxCell id="hAcNPV5WX45bzjx4Em5k-29" value="String" style="rounded=0;whiteSpace=wrap;html=1;" vertex="1" parent="hAcNPV5WX45bzjx4Em5k-27">
          <mxGeometry width="40" height="60" as="geometry" />
        </mxCell>
        <mxCell id="hAcNPV5WX45bzjx4Em5k-30" value="Expression" style="rounded=0;whiteSpace=wrap;html=1;" vertex="1" parent="hAcNPV5WX45bzjx4Em5k-27">
          <mxGeometry x="200" width="70" height="60" as="geometry" />
        </mxCell>
        <mxCell id="hAcNPV5WX45bzjx4Em5k-32" value="&lt;font size=&quot;1&quot; style=&quot;&quot;&gt;&lt;u style=&quot;font-size: 11px;&quot;&gt;root:SubtractExpression&lt;/u&gt;&lt;/font&gt;" style="swimlane;fontStyle=0;childLayout=stackLayout;horizontal=1;startSize=26;fillColor=none;horizontalStack=0;resizeParent=1;resizeParentMax=0;resizeLast=0;collapsible=1;marginBottom=0;whiteSpace=wrap;html=1;" vertex="1" parent="1">
          <mxGeometry x="840" y="548" width="140" height="32" as="geometry" />
        </mxCell>
      </root>
    </mxGraphModel>
  </diagram>
</mxfile>
